<?xml version="1.0" standalone="no"?>
<!DOCTYPE svg PUBLIC "-//W3C//DTD SVG 20010904//EN"
 "http://www.w3.org/TR/2001/REC-SVG-20010904/DTD/svg10.dtd">
<svg version="1.0" xmlns="http://www.w3.org/2000/svg"
 width="512.000000pt" height="512.000000pt" viewBox="0 0 512.000000 512.000000"
 preserveAspectRatio="xMidYMid meet">
<metadata>
Created by potrace 1.16, written by Peter Selinger 2001-2019
</metadata>
<g transform="translate(0.000000,512.000000) scale(0.100000,-0.100000)"
fill="#000000" stroke="none">
<path d="M160 3015 l0 -1195 -80 0 -80 0 0 -230 0 -230 309 0 309 0 6 -45 c12
-74 73 -183 140 -250 201 -199 520 -206 728 -17 82 76 128 155 158 270 l11 42
978 0 979 0 6 -44 c20 -128 147 -293 276 -354 86 -40 137 -51 241 -52 253 0
457 167 513 422 l6 28 230 0 230 0 0 518 0 517 -235 80 -236 80 -17 60 c-10
33 -61 205 -113 382 l-94 323 -472 0 -473 0 0 445 0 445 -1135 0 -1135 0 0
-75 0 -75 1055 0 1055 0 0 -1120 0 -1120 -380 0 -380 0 0 -80 0 -80 380 0 380
0 0 -75 0 -75 -833 0 -832 0 -16 58 c-9 31 -19 65 -24 75 -7 16 16 17 393 17
l399 0 7 70 c4 38 4 74 1 80 -4 6 -167 10 -459 10 l-453 0 -66 44 c-92 62
-165 87 -267 93 -135 8 -257 -29 -354 -106 l-39 -31 -228 0 -229 0 0 1120 0
1120 369 0 368 0 7 53 c3 28 6 62 6 75 l0 22 -455 0 -455 0 0 -1195z m4158
113 c5 -18 53 -182 107 -364 l97 -331 222 -75 221 -75 3 -92 3 -91 -151 0
-150 0 0 -75 0 -75 150 0 150 0 0 -220 0 -220 -159 0 -158 0 -7 38 c-9 59 -69
172 -122 231 -209 232 -575 231 -779 -2 -49 -57 -98 -148 -115 -219 l-12 -48
-69 0 -69 0 0 825 0 825 415 0 414 0 9 -32z m-3662 -1485 c-4 -9 -15 -43 -24
-75 l-17 -58 -232 0 -233 0 0 75 0 75 256 0 c238 0 256 -1 250 -17z"/>
<path d="M3615 3008 c-3 -7 -4 -144 -3 -303 l3 -290 378 -3 c298 -2 377 0 377
10 -1 7 -40 144 -89 303 l-88 290 -287 3 c-225 2 -288 0 -291 -10z m506 -278
c21 -69 41 -135 44 -147 l5 -23 -200 0 -200 0 0 150 0 151 157 -3 156 -3 38
-125z"/>
<path d="M3610 2185 l0 -75 150 0 150 0 0 75 0 75 -150 0 -150 0 0 -75z"/>
<path d="M1626 3354 l-489 -484 147 0 146 0 0 -340 0 -340 685 0 685 0 0 340
0 339 140 3 140 3 -482 482 -483 482 -489 -485z m789 -34 l300 -300 -103 0
-104 0 -201 195 -202 195 -195 -195 -195 -195 -105 0 -105 0 300 300 c165 165
302 300 305 300 3 0 140 -135 305 -300z m-139 -290 l164 -160 105 0 105 0 0
-265 0 -265 -230 0 -230 0 0 150 0 150 -75 0 -75 0 0 -150 0 -150 -225 0 -225
0 0 265 0 265 91 0 91 0 166 160 c91 88 168 160 170 160 3 0 78 -72 168 -160z"/>
<path d="M604 3376 c-3 -7 -4 -42 -2 -77 l3 -64 303 -3 302 -2 0 80 0 80 -300
0 c-244 0 -302 -3 -306 -14z"/>
<path d="M604 3076 c-3 -7 -4 -42 -2 -77 l3 -64 153 -3 152 -3 0 81 0 80 -150
0 c-118 0 -152 -3 -156 -14z"/>
<path d="M450 2640 l0 -80 380 0 380 0 0 80 0 80 -380 0 -380 0 0 -80z"/>
</g>
</svg>
